# xmcd
#
# Track frame offsets:
#	150
#	14067
#	26710
#	39845
#	60937
#	74980
#	86705
#	99517
#	114182
#	127620
#	140307
#	156227
#
# Disc length: 2221 seconds
# Revision: 0
# Processed by: cddbd v1.5.2PL0 Copyright (c) Steve Scherf et al.
# Submitted via: dBpowerAMP V12.0
#
DISCID=9808ab0c
DTITLE=Ron Spears - My Time Has Come
DYEAR=2000
DGENRE=Country
TTITLE0=River of Regret
TTITLE1=I'd Like to Wander Back
TTITLE2=The Lonesome Wind
TTITLE3=Mama's Tattered Bible
TTITLE4=Jenny Lynn
TTITLE5=You No Longer Believe in Me
TTITLE6=I Know You're Married
TTITLE7=Virginia from Kentucky
TTITLE8=Blue and Lonesome Again
TTITLE9=Heart of a Little Mountain Girl
TTITLE10=I Know the Way to You by Heart
TTITLE11=Stone Walls and Steel Bars
EXTD=
EXTT0=
EXTT1=
EXTT2=
EXTT3=
EXTT4=
EXTT5=
EXTT6=
EXTT7=
EXTT8=
EXTT9=
EXTT10=
EXTT11=
PLAYORDER=
